<svg xmlns="http://www.w3.org/2000/svg" width="92.204" height="19" viewBox="0 0 92.204 19">
  <g id="Group_33" data-name="Group 33" transform="translate(-265 -331)">
    <text id="Regndans" transform="translate(321.204 346)" fill="#3e4859" font-size="14" font-family="SegoeUI-Semibold, Segoe UI" font-weight="600" letter-spacing="0.08em"><tspan x="-35.088" y="0">Regndans</tspan></text>
    <g id="Group_24" data-name="Group 24" transform="translate(279.884 334) rotate(90)">
      <path id="Path_12" data-name="Path 12" d="M6.682,11.147A5.354,5.354,0,0,1,6.7,3.657L3.041,0a10.548,10.548,0,0,0-.016,14.8Z" transform="translate(8.183 0.061)" fill="#1abc9c"/>
      <path id="Path_13" data-name="Path 13" d="M11.147.016A5.354,5.354,0,0,1,3.657,0L0,3.657a10.548,10.548,0,0,0,14.8.016Z" transform="translate(0.016 0)" fill="#3e4859"/>
      <path id="Path_7" data-name="Path 7" d="M.016,3.657A5.354,5.354,0,0,1,0,11.147L3.656,14.8A10.548,10.548,0,0,0,3.673,0Z" transform="translate(0 0.061)" fill="#1abc9c"/>
      <path id="Path_14" data-name="Path 14" d="M8.193.03A10.524,10.524,0,0,0,0,3.025L3.657,6.681a5.354,5.354,0,0,1,7.49.016l.031-.031A10.507,10.507,0,0,1,8.193.03Z" transform="translate(0.023 8.187)" fill="#3e4859"/>
    </g>
  </g>
</svg>
